<svg xmlns="http://www.w3.org/2000/svg" viewBox="0 0 156 60"><defs><linearGradient id="g4" x1="50.09" x2="40.02" y1="37.1" y2="19.11" gradientUnits="x"><stop offset="0" stop-color="#fff"/><stop offset=".78" stop-color="#00b1e9"/></linearGradient><linearGradient id="g6" x1="54.19" x2="61.66" y1="33.44" y2="17.82" gradientUnits="x"><stop offset="0" stop-color="#fff"/><stop offset=".65" stop-color="#00b1e9"/></linearGradient><style>.c1{fill:#00b1e9}.c4{fill:#193339}</style></defs><g><g><path d="M55.39 44.06 46.2 60H34.65L46.2 40l3.41-5.89a8.21 8.21 0 0 0 0-8.22L52 29.94l2.06 3.59 1.34 2.3a8.28 8.28 0 0 1-.01 8.23Z" class="c1"/><path d="m49.61 34.05-3.41 5.89-11.55-20 5.78-10 7.88 13.64 1.3 2.26a8.21 8.21 0 0 1 0 8.21Z" style="fill:url(#g4)"/><path d="m69.31 19.93-8.66 15.01-8.67-15.01h17.33z" style="fill:url(#g6)"/><path d="M89.59 14.93 98.22 0H86.64l-.85 1.5-5.86 10.16L78 14.93V15l-2.89 5-2.89 5-2.89 5-2.9 5-2.87 5h28.89l3.7-6.42L106.87 15ZM86.67 30H80.9l2.88-5h5.78Zm-66.45-4.99L23.1 20 34.66 0H23.12l-.67 1.16-1.62 2.78-3.5 6.05-3.41 5.9L11.55 20l-2.89 5.01-2.88 5-2.89 5L0 40.02h28.9l2.87-5.01 2.34-4.07.55-.93H17.33l2.89-5zM121.31 20l-2.87 5.01-2.89 5-2.88 5-.69 1.17-2.22 3.82h-4.74l-6.78-.03 2.87-4.96 2.89-5 2.87-5 2.89-5.01h11.55zm8.68-15-2.88 4.99-2.91 5.02h-11.53l4.9-8.5.87-1.51h11.55z" class="c4"/><path d="M130.55 40.03h-15.17l2.53-4.38 2.53-4.38 2.53-4.38 2.53 4.38 2.52 4.38 2.53 4.38z" class="c1"/><path d="M150.78 31.27h-10.12l-2.52-4.38-2.53-4.38 2.53-4.38 2.52-4.37h10.12v-.01l2.53-4.37L155.84 5h-20.23l-2.53 4.38-2.53 4.38-2.52 4.37h-.01l-2.52 4.38 2.52 4.38h.01l2.52 4.38 2.53 4.38 2.53 4.38h20.23l-2.53-4.38-2.53-4.38z" class="c4"/></g></g></svg>
